<svg id="Layer_1" data-name="Layer 1" xmlns="http://www.w3.org/2000/svg" xmlns:xlink="http://www.w3.org/1999/xlink" width="341.82" height="156.14" viewBox="0 0 341.82 156.14">
  <defs>
    <style>
      .cls-1 {
        fill: none;
      }

      .cls-2 {
        clip-path: url(#clip-path);
      }

      .cls-3 {
        fill: #2d2a4a;
      }

      .cls-4 {
        fill: #a41d32;
      }
    </style>
    <clipPath id="clip-path" transform="translate(-18.23 -16.44)">
      <rect class="cls-1" x="-31" y="-21.89" width="441.73" height="261.89"/>
    </clipPath>
  </defs>
  <title>NIA</title>
  <g class="cls-2">
    <path class="cls-3" d="M301.86,85.63l-32.65,54H246.47S286.2,73.33,287,71.82a4.84,4.84,0,0,0-.35-5.52h29.74L360,139.6H333.56s2.53-2.24.33-5.86c-1-1.63-29.24-48.11-29.24-48.11s-.67-1.34-1.39-1.34-1.4,1.34-1.4,1.34" transform="translate(-18.23 -16.44)"/>
    <path class="cls-3" d="M144.92,66.07a5.55,5.55,0,0,1,.57,5.61c-.53,1.17-24.22,40.24-24.22,40.24a2.58,2.58,0,0,1-2.08,1.3,2.4,2.4,0,0,1-2-1.19L89.08,66.3H58.23a4.75,4.75,0,0,1,.56,5.38C58,73.17,18.23,139.6,18.23,139.6H40.87L73.1,86.05s.74-1.26,1.44-1.26S76,86,76,86L107.4,136.1a9.41,9.41,0,0,0,2.8,2.55,10.9,10.9,0,0,0,4.67.95h12.31s1.11-2,2.3-4c1-1.72,41.7-69.57,41.7-69.57Z" transform="translate(-18.23 -16.44)"/>
    <path class="cls-3" d="M29.29,158.33a3.72,3.72,0,0,1,.93,2.46v11.58H28v-8.81A12.08,12.08,0,0,1,23.46,165c-1.57.38-3,1.35-2.89,3.14.19,2.22,2.76,2.89,5.42,2.45l-1.18,1.75c-3.75.44-6.58-1.16-6.58-4.29,0-2.34,2-4.05,4.66-4.63,2.08-.46,5-.76,5-2.87,0-1.42-1.41-2.51-3.2-2.51-2,0-3.34,1.16-3.48,2.56H18.74c.34-2.3,2.71-4.1,5.84-4.1a9.56,9.56,0,0,1,3.45.65c.75.26,2.14-.41,1.82-1.65h2.62c-.14,1.6-1.52,2.54-3.18,2.8" transform="translate(-18.23 -16.44)"/>
    <path class="cls-3" d="M27.36,155a2.11,2.11,0,1,1,0-4.18,2.11,2.11,0,1,1,0,4.18m0-3a.89.89,0,0,0-1,.88,1,1,0,0,0,1.92,0,.89.89,0,0,0-1-.88m15.33,20.37V161.6c0-2.15-.88-3.53-3-3.53a2.83,2.83,0,0,0-3,2.56H34.36c.17-2,2.15-4.1,5.27-4.1,3.42,0,5.27,1.69,5.27,4.73v11.11Z" transform="translate(-18.23 -16.44)"/>
    <path class="cls-3" d="M61.28,172.37a1.48,1.48,0,0,1-.69-1.33v-.84c-.46,1-1.66,2.37-4.48,2.37S51,170.81,51,167.62V156.7h2.21v10.46c0,2.52,1.4,3.83,3.7,3.83a3.55,3.55,0,0,0,3.73-3.71V156.7H62.8v13.85a2,2,0,0,0,1.13,1.82Z" transform="translate(-18.23 -16.44)"/>
    <polygon class="cls-3" points="41.52 138.53 41.52 135.35 43.75 135.35 43.75 136.98 50.72 136.98 50.72 138.53 41.52 138.53"/>
    <path class="cls-3" d="M79.52,172.37v-11c0-1.88-1.45-3.26-3.66-3.26a4.1,4.1,0,0,0-3.76,2.17l1.62,1.09a2.13,2.13,0,0,0-1.62,2v9.08H69.87v-8.83a2.25,2.25,0,0,1,1.44-2l-1.72-1.12c.63-1.88,2.88-3.86,6.27-3.86s5.9,1.8,5.9,4.69v11.15Z" transform="translate(-18.23 -16.44)"/>
    <path class="cls-3" d="M95,172.37H90.45L87,157.28l2.11-.58,3.26,14.11h1.8c2.39,0,3.16-1.65,3.16-6.69s-1-5.83-3.63-5.83H92.49l1.06-1.59h1.38c4,0,4.63,2.4,4.63,7.33,0,5.83-1.23,8.34-4.53,8.34" transform="translate(-18.23 -16.44)"/>
    <path class="cls-3" d="M113.31,172.37V161.6c0-2.15-.88-3.53-3-3.53a2.85,2.85,0,0,0-3.08,2.56H105c.18-2,2.14-4.1,5.28-4.1,3.45,0,5.26,1.69,5.26,4.73v11.11Z" transform="translate(-18.23 -16.44)"/>
    <path class="cls-3" d="M131.93,172.37a1.46,1.46,0,0,1-.69-1.33v-.84c-.47,1-1.69,2.37-4.46,2.37s-5.2-1.76-5.2-4.95V156.7h2.2v10.46c0,2.52,1.43,3.83,3.73,3.83a3.55,3.55,0,0,0,3.73-3.71V156.7h2.22v13.85a2,2,0,0,0,1.11,1.82Z" transform="translate(-18.23 -16.44)"/>
    <path class="cls-3" d="M149.84,172.37a1.45,1.45,0,0,1-.7-1.33v-.84c-.47,1-1.69,2.37-4.48,2.37s-5.19-1.76-5.19-4.95V156.7h2.25v10.46c0,2.52,1.4,3.83,3.7,3.83a3.55,3.55,0,0,0,3.72-3.71V156.7h2.2v13.85a2.08,2.08,0,0,0,1.14,1.82Z" transform="translate(-18.23 -16.44)"/>
    <path class="cls-3" d="M162.55,172.57c-3.23,0-5.55-1.69-5.77-4.49h2.28a3.2,3.2,0,0,0,3.49,2.91c2.46,0,3.81-1.75,3.81-6.44s-1.35-6.48-3.81-6.48a3.43,3.43,0,0,0-3.33,2.56h-2.31c.47-2.41,2.79-4.1,5.64-4.1,3.92,0,6,2.31,6,8s-2.13,8-6,8" transform="translate(-18.23 -16.44)"/>
    <polygon class="cls-3" points="140.54 138.53 140.54 135.35 142.77 135.35 142.77 136.98 149.74 136.98 149.74 138.53 140.54 138.53"/>
    <path class="cls-3" d="M184,172.37V160.58a2.18,2.18,0,0,0-1.27-2.18,3.15,3.15,0,0,1-5.4,0,2.18,2.18,0,0,0-1.24,2.18V169L180,163.2h-2.41l.69-1.56h4v1.56l-6.15,9.17h-2.24V160.24c0-2.12,1.66-3.71,4.2-3.71a2,2,0,0,0,4,0c2.53,0,4.14,1.59,4.14,3.71v12.13Z" transform="translate(-18.23 -16.44)"/>
    <path class="cls-3" d="M202.12,172.37v-11c0-1.88-1.43-3.26-3.68-3.26a4.1,4.1,0,0,0-3.75,2.17l1.65,1.09a2.14,2.14,0,0,0-1.65,2v9.08h-2.22v-8.83a2.23,2.23,0,0,1,1.45-2l-1.73-1.12a6.4,6.4,0,0,1,6.25-3.86c3.37,0,5.9,1.8,5.9,4.69v11.15Z" transform="translate(-18.23 -16.44)"/>
    <path class="cls-3" d="M216.2,172.57c-3.54,0-6.11-1.76-6-5h2.4c-.23,2,1.55,3.37,3.52,3.37s3.59-1.18,3.59-2.86c0-1.86-1.79-2.8-4-3.27-2.68-.58-5.08-1.63-5.08-4,0-2.59,2.6-4.26,5.47-4.26s5.27,1.63,5.48,4.1h-2.26a3,3,0,0,0-3.22-2.56c-1.66,0-3.18,1.09-3.18,2.47,0,1.77,1.77,2.3,4.29,2.82,2.73.6,4.78,2,4.78,4.45,0,3.12-2.43,4.76-5.8,4.76" transform="translate(-18.23 -16.44)"/>
    <path class="cls-3" d="M233.62,172.57c-3.56,0-6.11-1.76-6-5H230c-.27,2,1.55,3.37,3.49,3.37s3.59-1.18,3.59-2.86c0-1.86-1.81-2.8-4-3.27-2.71-.58-5.07-1.63-5.07-4,0-2.59,2.57-4.26,5.45-4.26s5.24,1.63,5.48,4.1h-2.27a3,3,0,0,0-3.21-2.56c-1.65,0-3.18,1.09-3.18,2.47,0,1.77,1.76,2.3,4.28,2.82,2.73.6,4.8,2,4.8,4.45,0,3.12-2.41,4.76-5.8,4.76" transform="translate(-18.23 -16.44)"/>
    <path class="cls-3" d="M252.31,172.57a5.62,5.62,0,0,1-4.69-2.39V171a1.39,1.39,0,0,1-.69,1.33H244.3a1.94,1.94,0,0,0,1.12-1.82V156.7h2.2v10.58c0,2.13,2.44,3.71,4.15,3.71a3.1,3.1,0,0,0,3.3-3.24V156.7h2.2v11.4c0,2.71-2.24,4.47-5,4.47" transform="translate(-18.23 -16.44)"/>
    <path class="cls-3" d="M266.75,172.37h-3V156.7H266v14.11h1.93Zm5.17,0h-3V156.7h2.19v14.11h1.94Z" transform="translate(-18.23 -16.44)"/>
    <path class="cls-3" d="M288,172.37V161.76c0-1.18-.25-2.07-1.14-2.07s-1.15.75-1.64,1.85l-4.67,10.83h-2.22V158.51a2,2,0,0,0-1.11-1.81h2.63a1.52,1.52,0,0,1,.7,1.37v9.68l3.15-7.24a2.85,2.85,0,0,1,2-2h-2.12V156.7h6.61v1.79h-2.45a3,3,0,0,1,2.45,3.15v10.73Z" transform="translate(-18.23 -16.44)"/>
    <rect class="cls-3" x="269.21" y="134.62" width="2.21" height="3.91"/>
    <path class="cls-3" d="M303.82,172.37h-4.57l-3.45-15.09,2.14-.58,3.26,14.11H303c2.34,0,3.12-1.65,3.12-6.69s-1-5.83-3.58-5.83h-1.3l1.1-1.59h1.37c4,0,4.65,2.4,4.65,7.33,0,5.83-1.25,8.34-4.56,8.34" transform="translate(-18.23 -16.44)"/>
    <path class="cls-3" d="M320,172.57c-3.21,0-5.5-1.58-5.5-4.33V156.7h2.19v11.4c0,2.08,1.43,2.89,3.31,2.89s3.25-.81,3.25-2.89V164c0-1.51-1.33-2.56-3.41-2.56h-1.4v-1.56h1.4c2,0,3.41-.76,3.41-2.16v-1h2.2v1.11c0,1.74-1.53,2.62-3.62,2.82,2.21,0,3.62,1.35,3.62,3.05v4.56c0,2.75-2.24,4.33-5.45,4.33" transform="translate(-18.23 -16.44)"/>
    <path class="cls-3" d="M339.17,172.37V161.6c0-2.15-.88-3.53-3-3.53a2.82,2.82,0,0,0-3,2.56h-2.23c.16-2,2.09-4.1,5.24-4.1,3.44,0,5.26,1.69,5.26,4.73v11.11Z" transform="translate(-18.23 -16.44)"/>
    <path class="cls-3" d="M357.74,172.37V160.58a2.13,2.13,0,0,0-1.28-2.18,3.11,3.11,0,0,1-5.36,0,2.13,2.13,0,0,0-1.27,2.18V169l3.86-5.77h-2.37l.67-1.56h4v1.56l-6.17,9.17h-2.19V160.24c0-2.12,1.62-3.71,4.14-3.71a2,2,0,0,0,4,0c2.54,0,4.13,1.59,4.13,3.71v12.13Z" transform="translate(-18.23 -16.44)"/>
    <rect class="cls-3" x="330.43" y="136.98" width="11.18" height="1.55"/>
    <path class="cls-4" d="M219,16.44a23.07,23.07,0,0,0,22.92,23.21v.19A23.13,23.13,0,0,0,219,63.14h-.19A23.08,23.08,0,0,0,195.87,39.9v-.17a23.12,23.12,0,0,0,22.95-23.28Z" transform="translate(-18.23 -16.44)"/>
    <path class="cls-3" d="M191.41,74.43l-1.47,6.39s25.57-10.2,14.76,8.57-21.13,35.08-21.13,35.08-15.06,23.74,28.58,11.8l20.45-6.79,1.74-6.62s-33.38,12-19.84-9l21.41-36.27s9.64-14.34-9-11.35a248.6,248.6,0,0,0-35.48,8.19" transform="translate(-18.23 -16.44)"/>
  </g>
</svg>
